# xmcd CD database file
#
# Track frame offsets:
#	150
#	12330
#	28137
#	51530
#	67350
#	89932
#	115917
#	131702
#	153135
#	174010
#	188367
#	204837
#
# Disc length: 3013 seconds
#
# Revision: 1
# Processed by: cddbd v1.5.1PL0 Copyright (c) Steve Scherf et al.
# Submitted via: CDex 1.51
#
DISCID=a40bc30c
DTITLE=Reine Rimon eiusque papae fervidissimi - Variationes Horatianae Jazzicae
DYEAR=1993
DGENRE=Jazz
TTITLE0=Hederae praemia
TTITLE1=Vitae si vir integer
TTITLE2=Omnia proposuit
TTITLE3=Nives diffugiunt
TTITLE4=Dones mihi valido
TTITLE5=Amor amor
TTITLE6=Metuit in montibus
TTITLE7=Iuvenis quis gracilis
TTITLE8=Acris hiems solvitur
TTITLE9=Tempus est bibere
TTITLE10=Faunus in Lucretilem
TTITLE11=Cum sancti caelum ineunt
EXTD=YEAR: 1993
EXTT0=
EXTT1=
EXTT2=
EXTT3=
EXTT4=
EXTT5=
EXTT6=
EXTT7=
EXTT8=
EXTT9=
EXTT10=
EXTT11=
PLAYORDER=
